<svg xmlns="http://www.w3.org/2000/svg" width="300" height="300">
  <g fill="transparent" stroke="red" stroke-width="10px" stroke-linejoin="round" transform="matrix(0.49,0,0,0.49,-46.3,-10.4)">
    <path d="M 567.1,277.9 L 512.4,536.3 L 256.3,559.9 L 149.6,324.1" />
    <path d="M 358,32.3 L 215.6,125.8 L 97.3,286.4 L 149.6,324.2 L 334.5,145" />
    <path d="M 567,278.1 L 689.4,216.5 L 558.2,80.3 L 357.9,32.3 L 334.5,145 z" i/>
    <path d="M 567,278.1 L 512.2,536.2 L 610.6,585 L 703.6,401.7 L 689.8,216.4 z" />
    <path d="M 610.6,584.9 L 512.4,536.3 L 256.3,559.9 L 248.6,614 L 447.6,627.1 z" />
    <path d="M 248.6,614.1 L 157.3,456.9 L 97.2,286.4" />
  </g>
</svg>